<svg width="300" height="300" viewBox="0 0 300 300" xmlns="http://www.w3.org/2000/svg">
  <defs>
    <radialGradient id="lightGlow" cx="50%" cy="20%" r="60%">
      <stop offset="0%" stop-color="#F6C345" stop-opacity="0.8" />
      <stop offset="100%" stop-color="#F6C345" stop-opacity="0" />
    </radialGradient>
  </defs>

  <!-- الخلفية -->
  <rect width="100%" height="100%" fill="white"/>

  <!-- ضوء ينبعث من الكتاب -->
  <ellipse cx="150" cy="110" rx="100" ry="60" fill="url(#lightGlow)" />

  <!-- الكتاب المفتوح -->
  <path d="M60 150 Q80 130 120 150 T180 150 Q220 130 240 150 L240 200 Q220 180 180 200 T120 200 Q80 180 60 200 Z" fill="#2E3A8C" stroke="#F6C345" stroke-width="2"/>

  <!-- خط منتصف الكتاب -->
  <line x1="150" y1="150" x2="150" y2="200" stroke="#F6C345" stroke-width="1.5" stroke-dasharray="4"/>

  <!-- رمزية المصباح (مصباح علاء الدين صغير أعلى الكتاب) -->
  <path d="M135 100 Q150 90 165 100 Q160 95 160 92 Q160 85 170 85 Q160 80 160 75 Q160 70 165 70 Q155 65 145 70 Q150 75 150 80 Q150 85 140 85 Q145 90 145 92 Q145 95 135 100 Z"
        fill="#F6C345" stroke="#2E3A8C" stroke-width="1"/>

</svg>
